<svg width="144" height="144" viewBox="0 0 144 144" fill="none" xmlns="http://www.w3.org/2000/svg">
<path d="M111.252 47.205C111.638 47.2991 112.039 47.3156 112.431 47.2536C112.824 47.1915 113.2 47.0521 113.538 46.8435C113.876 46.6348 114.169 46.3611 114.401 46.0382C114.632 45.7153 114.797 45.3497 114.886 44.9625C114.975 44.5753 114.986 44.1742 114.919 43.7827C114.852 43.3911 114.708 43.0168 114.495 42.6815C114.282 42.3462 114.004 42.0565 113.678 41.8293C113.352 41.6021 112.984 41.4419 112.596 41.358L92.748 36.798C92.359 36.6946 91.9531 36.6705 91.5546 36.7271C91.1561 36.7838 90.7731 36.9201 90.4283 37.1279C90.0836 37.3356 89.7842 37.6107 89.5479 37.9366C89.3117 38.2625 89.1434 38.6326 89.0532 39.0249C88.963 39.4172 88.9527 39.8236 89.0228 40.2199C89.0929 40.6163 89.2421 40.9945 89.4614 41.332C89.6808 41.6695 89.9658 41.9594 90.2995 42.1845C90.6332 42.4096 91.0088 42.5652 91.404 42.642L111.252 47.205Z" fill="#FFE500"/>
<path fill-rule="evenodd" clip-rule="evenodd" d="M102 66C108.365 66 114.47 63.4714 118.971 58.9706C123.471 54.4697 126 48.3652 126 42C126 35.6348 123.471 29.5303 118.971 25.0294C114.47 20.5286 108.365 18 102 18C95.6348 18 89.5303 20.5286 85.0294 25.0294C80.5285 29.5303 78 35.6348 78 42C78 48.3652 80.5285 54.4697 85.0294 58.9706C89.5303 63.4714 95.6348 66 102 66ZM102 60C104.364 60 106.704 59.5344 108.888 58.6298C111.072 57.7253 113.056 56.3994 114.728 54.7279C116.399 53.0565 117.725 51.0722 118.63 48.8883C119.534 46.7044 120 44.3638 120 42C120 39.6362 119.534 37.2956 118.63 35.1117C117.725 32.9278 116.399 30.9435 114.728 29.2721C113.056 27.6006 111.072 26.2748 108.888 25.3702C106.704 24.4656 104.364 24 102 24C97.2261 24 92.6477 25.8964 89.272 29.2721C85.8964 32.6477 84 37.2261 84 42C84 46.7739 85.8964 51.3523 89.272 54.7279C92.6477 58.1036 97.2261 60 102 60Z" fill="#FFE500"/>
<path fill-rule="evenodd" clip-rule="evenodd" d="M50.334 27.7352C48.393 23.1392 41.895 22.6772 39.288 26.9462L18.876 60.3451C16.521 64.1972 19.152 69.1172 23.745 69.4442L59.343 71.9821C63.933 72.3121 67.275 67.8182 65.523 63.6722L50.334 27.7352ZM44.433 30.0392C44.4231 30.0505 44.414 30.0625 44.406 30.0752L24.03 63.4201L24.036 63.4262C24.0454 63.4314 24.0555 63.4354 24.066 63.4381C24.1009 63.4499 24.1372 63.457 24.174 63.4591L59.775 65.9972C59.835 66.0032 59.871 65.9972 59.889 65.9972C59.9218 65.9911 59.9521 65.9755 59.976 65.9521L44.808 30.0722L44.796 30.0422C44.7456 30.0166 44.6904 30.0023 44.634 30.0002C44.5707 29.9941 44.5069 30.0034 44.448 30.0272L44.439 30.0302V30.0332L44.433 30.0392Z" fill="#FFE500"/>
<path fill-rule="evenodd" clip-rule="evenodd" d="M106.155 109.08C110.482 107.062 113.831 103.409 115.464 98.9224C117.097 94.4362 116.881 89.4849 114.864 85.1577C113.865 83.0151 112.454 81.0903 110.711 79.4931C108.968 77.8958 106.928 76.6575 104.707 75.8488C100.22 74.2156 95.2691 74.4313 90.942 76.4487L58.314 91.6647C56.1716 92.6636 54.247 94.0747 52.6499 95.8174C51.0529 97.5602 49.8147 99.6004 49.0062 101.822C48.1976 104.043 47.8344 106.402 47.9374 108.763C48.0405 111.125 48.6076 113.443 49.6065 115.585C50.6054 117.728 52.0165 119.652 53.7592 121.249C55.5019 122.846 57.5421 124.085 59.7634 124.893C61.9846 125.702 64.3433 126.065 66.7049 125.962C69.0665 125.859 71.3846 125.292 73.527 124.293L106.155 109.077V109.08ZM60.849 97.1037C59.4051 97.7597 58.1055 98.6953 57.0254 99.8566C55.9454 101.018 55.1062 102.382 54.5564 103.869C54.0066 105.357 53.7572 106.939 53.8224 108.523C53.8877 110.108 54.2665 111.664 54.9367 113.101C55.607 114.538 56.5555 115.828 57.7275 116.897C58.8994 117.965 60.2716 118.791 61.7645 119.326C63.2575 119.861 64.8417 120.095 66.4255 120.014C68.0094 119.932 69.5614 119.538 70.992 118.854L84.39 112.605L74.25 90.8547L60.849 97.1007V97.1037ZM89.829 110.07L79.686 88.3197L93.477 81.8877C94.9086 81.1952 96.4636 80.7941 98.0516 80.7078C99.6395 80.6216 101.229 80.8518 102.727 81.3851C104.225 81.9185 105.602 82.7443 106.779 83.8146C107.955 84.8849 108.907 86.1783 109.579 87.6197C110.251 89.061 110.629 90.6216 110.693 92.2106C110.757 93.7997 110.504 95.3855 109.949 96.8759C109.394 98.3663 108.549 99.7316 107.462 100.892C106.375 102.053 105.068 102.986 103.617 103.638L89.829 110.07Z" fill="#FFE500"/>
</svg>
