<svg width="212" height="22" viewBox="0 0 212 22" fill="none" xmlns="http://www.w3.org/2000/svg">
<path d="M5.225 5.775C4.49167 6.69167 4.125 7.94167 4.125 9.525C4.125 11.1083 4.49167 12.3667 5.225 13.3C5.95833 14.2167 6.95 14.675 8.2 14.675C9.45 14.675 10.4417 14.2167 11.175 13.3C11.9083 12.3667 12.275 11.1083 12.275 9.525C12.275 7.94167 11.9083 6.69167 11.175 5.775C10.4417 4.84167 9.45 4.375 8.2 4.375C6.95 4.375 5.95833 4.84167 5.225 5.775ZM17.45 20.1L13.075 21.775L8.1 18.175C5.63333 18.1583 3.66667 17.3583 2.2 15.775C0.733333 14.1917 7.07805e-08 12.1083 7.07805e-08 9.525C7.07805e-08 6.94167 0.741667 4.85833 2.225 3.275C3.725 1.675 5.71667 0.874998 8.2 0.874998C10.7 0.874998 12.6917 1.66667 14.175 3.25C15.6583 4.83333 16.4 6.925 16.4 9.525C16.4 11.2917 16.0417 12.8417 15.325 14.175C14.6083 15.5083 13.6 16.525 12.3 17.225L17.45 20.1ZM28.8803 11.5V1.15H32.7303V11.475C32.7303 13.675 32.1136 15.3583 30.8803 16.525C29.6469 17.675 27.9803 18.25 25.8803 18.25C23.8136 18.25 22.1553 17.675 20.9053 16.525C19.6553 15.375 19.0303 13.75 19.0303 11.65V1.15H22.8803V11.625C22.8803 13.7083 23.8803 14.75 25.8803 14.75C27.8803 14.75 28.8803 13.6667 28.8803 11.5ZM40.7795 11.45H44.8295L44.6545 10.85C44.1712 9.21667 43.7712 7.825 43.4545 6.675C43.1545 5.525 42.9712 4.78333 42.9045 4.45L42.8045 3.95C42.6712 4.86667 42.0545 7.16667 40.9545 10.85L40.7795 11.45ZM46.7795 18L45.7545 14.55H39.8545L38.8295 18H34.8045L40.4295 1.15H45.2795L50.9045 18H46.7795ZM56.9652 14.625H63.1902V18H53.1152V1.15H56.9652V14.625ZM65.5723 18V1.15H69.4223V18H65.5723ZM84.14 1.15V4.25H80.04V18H76.165V4.25H72.04V1.15H84.14ZM100.639 1.15L94.8137 11.8V18H90.9637V11.825L85.2137 1.15H89.7137L90.7387 3.6C91.272 4.86667 91.7137 5.95 92.0637 6.85C92.4137 7.75 92.6387 8.33333 92.7387 8.6L92.8637 9C93.0303 8.25 93.7637 6.45 95.0637 3.6L96.1637 1.15H100.639ZM113.753 11.45H117.803L117.628 10.85C117.145 9.21667 116.745 7.825 116.428 6.675C116.128 5.525 115.945 4.78333 115.878 4.45L115.778 3.95C115.645 4.86667 115.028 7.16667 113.928 10.85L113.753 11.45ZM119.753 18L118.728 14.55H112.828L111.803 18H107.778L113.403 1.15H118.253L123.878 18H119.753ZM135.814 1.9V5.5C134.464 4.71667 133.064 4.325 131.614 4.325C130.964 4.325 130.464 4.45833 130.114 4.725C129.781 4.99167 129.614 5.33333 129.614 5.75C129.614 6.16667 129.822 6.54167 130.239 6.875C130.656 7.19167 131.281 7.53333 132.114 7.9C132.631 8.13333 133.056 8.34167 133.389 8.525C133.739 8.69167 134.131 8.93333 134.564 9.25C135.014 9.55 135.364 9.875 135.614 10.225C135.881 10.5583 136.106 10.975 136.289 11.475C136.472 11.975 136.564 12.5167 136.564 13.1C136.564 14.6167 136.006 15.85 134.889 16.8C133.772 17.7333 132.289 18.2 130.439 18.2C128.456 18.2 126.839 17.85 125.589 17.15V13.275C127.106 14.375 128.722 14.925 130.439 14.925C131.022 14.925 131.506 14.775 131.889 14.475C132.272 14.1583 132.464 13.75 132.464 13.25C132.464 13.0833 132.439 12.925 132.389 12.775C132.339 12.625 132.247 12.4833 132.114 12.35C131.981 12.2167 131.847 12.1083 131.714 12.025C131.597 11.925 131.414 11.8167 131.164 11.7C130.931 11.5667 130.731 11.4583 130.564 11.375C130.397 11.2917 130.147 11.175 129.814 11.025C129.497 10.875 129.239 10.7583 129.039 10.675C127.956 10.175 127.081 9.55833 126.414 8.825C125.764 8.09167 125.439 7.11667 125.439 5.9C125.439 4.45 125.972 3.28333 127.039 2.4C128.106 1.5 129.581 1.05 131.464 1.05C133.147 1.05 134.597 1.33333 135.814 1.9ZM148.656 1.9V5.5C147.306 4.71667 145.906 4.325 144.456 4.325C143.806 4.325 143.306 4.45833 142.956 4.725C142.622 4.99167 142.456 5.33333 142.456 5.75C142.456 6.16667 142.664 6.54167 143.081 6.875C143.497 7.19167 144.122 7.53333 144.956 7.9C145.472 8.13333 145.897 8.34167 146.231 8.525C146.581 8.69167 146.972 8.93333 147.406 9.25C147.856 9.55 148.206 9.875 148.456 10.225C148.722 10.5583 148.947 10.975 149.131 11.475C149.314 11.975 149.406 12.5167 149.406 13.1C149.406 14.6167 148.847 15.85 147.731 16.8C146.614 17.7333 145.131 18.2 143.281 18.2C141.297 18.2 139.681 17.85 138.431 17.15V13.275C139.947 14.375 141.564 14.925 143.281 14.925C143.864 14.925 144.347 14.775 144.731 14.475C145.114 14.1583 145.306 13.75 145.306 13.25C145.306 13.0833 145.281 12.925 145.231 12.775C145.181 12.625 145.089 12.4833 144.956 12.35C144.822 12.2167 144.689 12.1083 144.556 12.025C144.439 11.925 144.256 11.8167 144.006 11.7C143.772 11.5667 143.572 11.4583 143.406 11.375C143.239 11.2917 142.989 11.175 142.656 11.025C142.339 10.875 142.081 10.7583 141.881 10.675C140.797 10.175 139.922 9.55833 139.256 8.825C138.606 8.09167 138.281 7.11667 138.281 5.9C138.281 4.45 138.814 3.28333 139.881 2.4C140.947 1.5 142.422 1.05 144.306 1.05C145.989 1.05 147.439 1.33333 148.656 1.9ZM161.497 11.5V1.15H165.347V11.475C165.347 13.675 164.731 15.3583 163.497 16.525C162.264 17.675 160.597 18.25 158.497 18.25C156.431 18.25 154.772 17.675 153.522 16.525C152.272 15.375 151.647 13.75 151.647 11.65V1.15H155.497V11.625C155.497 13.7083 156.497 14.75 158.497 14.75C160.497 14.75 161.497 13.6667 161.497 11.5ZM172.322 4.275V9.025H174.147C175.813 9.025 176.647 8.20833 176.647 6.575C176.647 5.85833 176.43 5.3 175.997 4.9C175.563 4.48333 174.972 4.275 174.222 4.275H172.322ZM177.147 18L173.497 12.15H172.322V18H168.472V1.15H174.297C176.18 1.15 177.688 1.65 178.822 2.65C179.972 3.65 180.547 4.95 180.547 6.55C180.547 8.95 179.522 10.6083 177.472 11.525L181.747 18H177.147ZM187.703 14.925H194.303V18H183.828V1.15H194.203V4.225H187.703V8.05H193.503V11.1H187.703V14.925ZM201.377 14.85H203.127C204.677 14.85 205.868 14.3667 206.702 13.4C207.552 12.4333 207.977 11.0667 207.977 9.3C207.977 7.8 207.552 6.6 206.702 5.7C205.852 4.78333 204.652 4.325 203.102 4.325H201.377V14.85ZM197.427 1.15H203.227C205.76 1.15 207.835 1.93333 209.452 3.5C211.068 5.05 211.877 6.98333 211.877 9.3C211.877 12 211.077 14.125 209.477 15.675C207.893 17.225 205.793 18 203.177 18H197.427V1.15Z" fill="black"/>
</svg>
