<svg width="103" height="103" viewBox="0 0 103 103" fill="none" xmlns="http://www.w3.org/2000/svg">
<path d="M35.8612 21.4583H30.0846L21.4583 55.7917H25.8702L27.8615 47.7448H37.801L39.7408 55.7917H44.2986L35.8612 21.4583ZM28.4409 44.2986L32.8055 25.5354H32.9986L37.2216 44.3029L28.4409 44.2986ZM48.2297 55.7917V21.4583H52.5214V55.7917H48.2297ZM49.0323 60.0833H17.1667V17.1667H60.0833V37.6808C65.1629 34.4007 71.3069 33.1934 77.25 34.3076V25.75H68.6667V17.1667C68.6599 14.8923 67.7534 12.7131 66.1452 11.1048C64.5369 9.49662 62.3577 8.59013 60.0833 8.58333H51.5V0H42.9167V8.58333H34.3333V0H25.75V8.58333H17.1667C14.8923 8.59013 12.7131 9.49662 11.1048 11.1048C9.49662 12.7131 8.59013 14.8923 8.58333 17.1667V25.75H0V34.3333H8.58333V42.9167H0V51.5H8.58333V60.0833C8.59013 62.3577 9.49662 64.5369 11.1048 66.1452C12.7131 67.7534 14.8923 68.6599 17.1667 68.6667H25.75V77.25H34.3333V68.6667H42.9167V77.25H51.5V68.701C50.1391 66.0106 49.3017 63.0862 49.0323 60.0833ZM57.9375 57.9375C57.9375 54.9667 58.8185 52.0625 60.469 49.5924C62.1195 47.1222 64.4654 45.1969 67.2101 44.0601C69.9548 42.9232 72.975 42.6257 75.8887 43.2053C78.8025 43.7849 81.479 45.2155 83.5797 47.3162C85.6804 49.4169 87.111 52.0933 87.6905 55.0071C88.2701 57.9208 87.9727 60.941 86.8358 63.6857C85.6989 66.4304 83.7736 68.7764 81.3035 70.4269C78.8333 72.0774 75.9292 72.9583 72.9583 72.9583C70.9856 72.9589 69.0321 72.5708 67.2094 71.8161C65.3868 71.0614 63.7307 69.955 62.3357 68.5601C60.9408 67.1652 59.8344 65.5091 59.0797 63.6864C58.3251 61.8637 57.9369 59.9102 57.9375 57.9375ZM72.9583 81.5417C62.933 81.5417 42.9167 86.5758 42.9167 96.5625V103H103V96.5625C103 86.5715 82.9837 81.5417 72.9583 81.5417Z" fill="#FFE500"/>
</svg>
