<svg width="160" height="160" viewBox="0 0 160 160" fill="none" xmlns="http://www.w3.org/2000/svg">
<path d="M120 133.333L145.493 107.84C146.244 107.091 146.666 106.074 146.667 105.013V70C146.667 67.3478 145.613 64.8043 143.738 62.9289C141.862 61.0536 139.319 60 136.667 60V60C134.015 60 131.471 61.0536 129.596 62.9289C127.72 64.8043 126.667 67.3478 126.667 70V100" stroke="#FFE500" stroke-width="1.5" stroke-linecap="round" stroke-linejoin="round"/>
<path d="M120 106.668L125.72 100.948C126.02 100.648 126.259 100.291 126.421 99.8989C126.584 99.5065 126.667 99.0859 126.666 98.6612C126.666 98.0617 126.498 97.4743 126.182 96.9645C125.867 96.4548 125.416 96.0428 124.88 95.7745L121.926 94.3012C119.424 93.0502 116.592 92.6178 113.831 93.0653C111.069 93.5127 108.519 94.8174 106.54 96.7945L100.573 102.761C98.0725 105.261 96.6673 108.652 96.6665 112.188V133.335" stroke="#FFE500" stroke-width="1.5" stroke-linecap="round" stroke-linejoin="round"/>
<path d="M39.9999 133.333L14.5066 107.84C13.7562 107.091 13.3342 106.074 13.3333 105.013V70C13.3333 67.3478 14.3868 64.8043 16.2622 62.9289C18.1375 61.0536 20.6811 60 23.3333 60V60C25.9854 60 28.529 61.0536 30.4043 62.9289C32.2797 64.8043 33.3333 67.3478 33.3333 70V100" stroke="#FFE500" stroke-width="1.5" stroke-linecap="round" stroke-linejoin="round"/>
<path d="M39.9999 106.668L34.2799 100.948C33.9797 100.648 33.7416 100.291 33.5791 99.8987C33.4167 99.5064 33.3332 99.0858 33.3333 98.6612V98.6612C33.3333 97.4412 34.0266 96.3279 35.1199 95.7745L38.0733 94.3012C40.5753 93.0502 43.4075 92.6178 46.1689 93.0653C48.9303 93.5127 51.481 94.8174 53.4599 96.7945L59.4266 102.761C61.9272 105.261 63.3325 108.652 63.3333 112.188V133.335" stroke="#FFE500" stroke-width="1.5" stroke-linecap="round" stroke-linejoin="round"/>
<path d="M91.1132 80.0003H68.8866V64.447H53.3333V42.2203H68.8866V26.667H91.1132V42.2203H106.667V64.447H91.1132V80.0003Z" stroke="#FFE500" stroke-width="1.5" stroke-linecap="round" stroke-linejoin="round"/>
</svg>
